<svg xmlns="http://www.w3.org/2000/svg" viewBox="0 0 1200 1200" role="img" aria-labelledby="title desc">
  <title id="title">ZYRA Application Credential</title>
  <desc id="desc">Modern ZYRA application credential badge for evidence-backed access pathways.</desc>
  <defs>
    <linearGradient id="bg" x1="0" y1="0" x2="1" y2="1"><stop offset="0" stop-color="#070b12"/><stop offset=".55" stop-color="#0b1420"/><stop offset="1" stop-color="#07111d"/></linearGradient>
    <linearGradient id="panel" x1="0" y1="0" x2="0" y2="1"><stop offset="0" stop-color="#142536"/><stop offset="1" stop-color="#0b1826"/></linearGradient>
    <linearGradient id="gold" x1="0" y1="0" x2="1" y2="1"><stop offset="0" stop-color="#fff1b0"/><stop offset=".35" stop-color="#e2b85f"/><stop offset=".72" stop-color="#b8842e"/><stop offset="1" stop-color="#7b541d"/></linearGradient>
    <linearGradient id="silver" x1="0" y1="0" x2="1" y2="1"><stop offset="0" stop-color="#f7fafc"/><stop offset="1" stop-color="#9aa8b8"/></linearGradient>
    <filter id="shadow" x="-20%" y="-20%" width="140%" height="140%"><feDropShadow dx="0" dy="20" stdDeviation="22" flood-color="#000" flood-opacity=".45"/></filter>
  </defs>
  <rect width="1200" height="1200" rx="92" fill="url(#bg)"/>
  <rect x="42" y="42" width="1116" height="1116" rx="70" fill="none" stroke="#27394b" stroke-width="2"/>
  <rect x="70" y="70" width="1060" height="1060" rx="54" fill="none" stroke="#b98a36" stroke-opacity=".55" stroke-width="2"/>
  <text x="96" y="132" fill="#8fa2b6" font-family="Inter,Arial,sans-serif" font-size="24" font-weight="700" letter-spacing="5">APPLICATION CREDENTIAL</text>
  <text x="1104" y="132" text-anchor="end" fill="#8fa2b6" font-family="Inter,Arial,sans-serif" font-size="22" font-weight="600" letter-spacing="4">EVIDENCE PATHWAY</text>
  <g opacity=".2" stroke="#5f87a8" stroke-width="2" fill="none"><path d="M90 260 H330 L390 320 H520"/><path d="M1110 260 H870 L810 320 H680"/><path d="M90 940 H330 L390 880 H520"/><path d="M1110 940 H870 L810 880 H680"/></g>
  <g filter="url(#shadow)"><path d="M600 196 L810 316 V554 C810 708 722 824 600 892 C478 824 390 708 390 554 V316 Z" fill="url(#panel)" stroke="url(#gold)" stroke-width="7"/><path d="M600 230 L776 332 V548 C776 678 704 772 600 834 C496 772 424 678 424 548 V332 Z" fill="#0a1724" stroke="#31465a" stroke-width="2"/></g>
  <g stroke="#6886a1" stroke-width="5" fill="none" stroke-linecap="round"><path d="M473 440 H532 L558 466"/><path d="M727 440 H668 L642 466"/><path d="M458 536 H526"/><path d="M742 536 H674"/><path d="M600 342 V406"/><path d="M600 666 V730"/></g>
  <g fill="#d5a851"><circle cx="473" cy="440" r="8"/><circle cx="727" cy="440" r="8"/><circle cx="458" cy="536" r="8"/><circle cx="742" cy="536" r="8"/><circle cx="600" cy="342" r="8"/><circle cx="600" cy="730" r="8"/></g>
  <circle cx="600" cy="536" r="128" fill="#07111b" stroke="#435b70" stroke-width="2"/><circle cx="600" cy="536" r="111" fill="none" stroke="url(#gold)" stroke-width="5"/><text x="600" y="582" text-anchor="middle" fill="url(#gold)" font-family="Inter,Arial,sans-serif" font-size="132" font-weight="900">Z</text><path d="M545 612 H655" stroke="url(#gold)" stroke-width="7" stroke-linecap="round"/>
  <text x="600" y="930" text-anchor="middle" fill="url(#silver)" font-family="Inter,Arial,sans-serif" font-size="72" font-weight="900" letter-spacing="13">ZYRA</text>
  <text x="600" y="978" text-anchor="middle" fill="#d9b76d" font-family="Inter,Arial,sans-serif" font-size="25" font-weight="700" letter-spacing="6">VERIFIED CREDENTIAL PATHWAY</text>
  <rect x="124" y="1018" width="952" height="92" rx="18" fill="#0d1b29" stroke="#2b4053" stroke-width="2"/>
  <text x="600" y="1051" text-anchor="middle" fill="#f2f5f7" font-family="Inter,Arial,sans-serif" font-size="23" font-weight="700" letter-spacing="3">DOUGLAS BROWN • CREDENTIAL OWNER</text>
  <text x="600" y="1081" text-anchor="middle" fill="#8fa2b6" font-family="Inter,Arial,sans-serif" font-size="15" font-weight="600" letter-spacing="1.8">PALANTIR • CYBER • DATA • QUANTUM • SYSTEMS • RESEARCH • FITNESS • PSYCHOLOGY</text>
</svg>